<?xml version="1.0" encoding="UTF-8" standalone="no"?>
<svg
   xmlns:osb="http://www.openswatchbook.org/uri/2009/osb"
   xmlns:dc="http://purl.org/dc/elements/1.1/"
   xmlns:cc="http://creativecommons.org/ns#"
   xmlns:rdf="http://www.w3.org/1999/02/22-rdf-syntax-ns#"
   xmlns:svg="http://www.w3.org/2000/svg"
   xmlns="http://www.w3.org/2000/svg"
   xmlns:xlink="http://www.w3.org/1999/xlink"
   id="svg8"
   version="1.1"
   viewBox="0 0 616.80988 616.80988"
   height="616.80988mm"
   width="616.80988mm">
  <defs
     id="defs2">
    <linearGradient
       id="linearGradient6117">
      <stop
         id="stop6113"
         offset="0"
         style="stop-color:#002255;stop-opacity:1" />
      <stop
         id="stop6115"
         offset="1"
         style="stop-color:#d7e3f4;stop-opacity:1" />
    </linearGradient>
    <linearGradient
       osb:paint="solid"
       id="linearGradient6079">
      <stop
         id="stop6077"
         offset="0"
         style="stop-color:#000000;stop-opacity:1;" />
    </linearGradient>
    <linearGradient
       gradientUnits="userSpaceOnUse"
       y2="-1799.3555"
       x2="1687.5"
       y1="1194.3945"
       x1="-1012.5"
       id="linearGradient6121"
       xlink:href="#linearGradient6117" />
  </defs>
  <metadata
     id="metadata5">
    <rdf:RDF>
      <cc:Work
         rdf:about="">
        <dc:format>image/svg+xml</dc:format>
        <dc:type
           rdf:resource="http://purl.org/dc/dcmitype/StillImage" />
        <dc:title></dc:title>
      </cc:Work>
    </rdf:RDF>
  </metadata>
  <g
     transform="translate(125.67708,430.60421)"
     id="layer1">
    <path
       id="rect4553"
       transform="scale(0.26458333)"
       d="M -475,-1627.4805 V 703.76953 H 1856.25 V -1627.4805 Z m 904.51758,76.1485 v 130.9843 c 8.53536,-3.2828 17.5618,-5.7433 27.08203,-7.3847 9.84849,-1.9697 19.53253,-2.9551 29.05273,-2.9551 20.35357,0 37.2611,2.9542 50.72071,8.8633 13.45963,5.5808 24.12903,13.6238 32.00781,24.1289 8.20709,10.1768 13.95155,22.4872 17.23437,36.9316 3.28285,14.4445 4.92383,30.3666 4.92383,47.7657 v 143.7871 h -45.79492 v -133.9395 c 0,-15.7576 -1.1493,-29.2173 -3.44726,-40.3789 -1.96972,-11.1616 -5.4156,-20.1881 -10.33985,-27.082 -4.92424,-6.894 -11.4902,-11.8189 -19.69726,-14.7735 -8.2071,-3.2828 -18.38479,-4.9238 -30.53125,-4.9238 -4.92425,0 -10.01309,0.3278 -15.26563,0.9844 -5.25253,0.6565 -10.33943,1.478 -15.26367,2.4629 -4.59596,0.6566 -8.86333,1.4761 -12.80274,2.4609 -3.61111,0.9849 -6.23748,1.8063 -7.8789,2.4629 v 212.7266 H 383.7207 v -374.2422 z m 555.90039,0 v 137.3867 c 5.5808,-3.6111 13.9517,-7.3868 25.11323,-11.3262 11.49,-3.9394 24.6218,-5.9082 39.3946,-5.9082 18.3839,0 34.6338,3.282 48.75,9.8477 14.4445,6.5656 26.5909,15.7579 36.4394,27.5761 9.8485,11.8182 17.2359,25.9335 22.1602,42.3477 5.2525,16.4141 7.8769,34.471 7.8769,54.168 0,20.6818 -3.118,39.3942 -9.3554,56.1367 -5.9091,16.4141 -14.4439,30.3655 -25.6055,41.8555 -11.1616,11.4899 -24.6213,20.3544 -40.3789,26.5918 -15.7576,6.2372 -33.4846,9.3554 -53.1816,9.3554 -21.3384,0 -40.21479,-1.4771 -56.62895,-4.4316 -16.41416,-2.9546 -29.87386,-5.9088 -40.3789,-8.8633 v -366.8574 z m 267.31053,19.6972 c 8.2071,0 15.1008,2.7903 20.6817,8.3711 5.909,5.2526 8.8632,12.4741 8.8632,21.666 0,9.192 -2.9542,16.5794 -8.8632,22.1602 -5.5809,5.2525 -12.4746,7.8789 -20.6817,7.8789 -8.2071,0 -15.2667,-2.6264 -21.1758,-7.8789 -5.5808,-5.5808 -8.3711,-12.9682 -8.3711,-22.1602 0,-9.1919 2.7903,-16.4134 8.3711,-21.666 5.9091,-5.5808 12.9687,-8.3711 21.1758,-8.3711 z m -1031.13866,13.295 c 20.68183,0 39.39427,2.2985 56.13672,6.8945 17.07072,4.2677 29.54503,9.0267 37.42383,14.2793 l -15.26367,38.9023 c -6.89396,-4.2676 -17.23555,-8.3711 -31.02344,-12.3105 -13.4596,-4.2677 -29.21788,-6.4024 -47.27344,-6.4024 -9.19193,0 -17.72667,0.9854 -25.60546,2.9551 -7.87881,1.9697 -14.77256,4.9239 -20.68165,8.8633 -5.90909,3.9394 -10.67013,9.0282 -14.28125,15.2656 -3.28284,5.9091 -4.92382,12.9669 -4.92382,21.1738 0,9.192 1.8049,16.9072 5.41601,23.1446 3.61114,6.2374 8.69998,11.8179 15.26563,16.7422 6.56567,4.5959 14.11698,8.8633 22.65234,12.8027 8.86365,3.9394 18.54766,7.879 29.05274,11.8184 14.77272,5.9091 28.23243,11.8194 40.3789,17.7285 12.47479,5.9091 23.14419,12.9667 32.00781,21.1738 9.19194,8.2071 16.24959,18.055 21.17383,29.5449 4.92425,11.1617 7.38672,24.7853 7.38672,40.8711 0,29.8738 -10.99723,52.8536 -32.99219,68.9395 -21.66669,16.0858 -52.36173,24.1289 -92.08398,24.1289 -13.45963,0 -25.93394,-0.9854 -37.42383,-2.9551 -11.16165,-1.6414 -21.17544,-3.6102 -30.03906,-5.9082 -8.86365,-2.6263 -16.57691,-5.2526 -23.14258,-7.8789 -6.23738,-2.9546 -11.16233,-5.417 -14.773438,-7.3867 l 14.281248,-39.3926 c 7.55052,4.2677 19.03944,9.0268 34.46875,14.2793 15.42932,5.2525 34.30566,7.8789 56.62891,7.8789 49.89903,0 74.84961,-17.0714 74.84961,-51.2129 0,-10.5051 -2.29858,-19.3676 -6.89453,-26.5898 -4.26769,-7.5505 -10.17801,-13.9526 -17.72852,-19.2051 -7.55051,-5.5808 -16.24917,-10.3399 -26.09765,-14.2793 -9.52023,-3.9394 -19.69792,-7.879 -30.53126,-11.8184 -12.47474,-4.2676 -24.29149,-9.0287 -35.45312,-14.2812 -11.16163,-5.5808 -20.84564,-11.9829 -29.05273,-19.2051 -8.20707,-7.5505 -14.77302,-16.4131 -19.69727,-26.5898 -4.59596,-10.1768 -6.89453,-22.4872 -6.89453,-36.9317 0,-29.8737 10.17771,-53.1833 30.53125,-69.9258 20.35356,-16.7424 48.42025,-25.1132 84.20312,-25.1132 z m 545.39258,86.6679 c 34.46972,0 60.89542,10.8333 79.2793,32.5 18.38385,21.3384 27.57617,54.0023 27.57617,97.9922 v 7.8789 c 0,2.9546 -0.1639,5.7448 -0.49219,8.3711 H 698.04297 c 1.96969,26.591 9.68297,46.7805 23.14258,60.5684 13.4596,13.7879 34.47059,20.6816 63.03125,20.6816 16.08587,0 29.54557,-1.3132 40.3789,-3.9394 11.16163,-2.9546 19.53246,-5.7449 25.11328,-8.3711 l 6.40235,38.4082 c -5.58083,2.9545 -15.43069,6.0746 -29.54688,9.3574 -13.78789,3.2828 -29.54419,4.9238 -47.27148,4.9238 -22.32325,0 -41.69326,-3.2839 -58.10742,-9.8496 -16.08587,-6.8939 -29.38165,-16.2502 -39.88672,-28.0684 -10.50505,-11.8181 -18.38223,-25.7695 -23.63477,-41.8554 -4.92424,-16.4142 -7.38672,-34.3051 -7.38672,-53.6738 0,-22.6516 3.28199,-42.3494 9.84766,-59.0918 6.56564,-17.0708 15.26625,-31.1861 26.09961,-42.3477 10.83333,-11.1616 23.30764,-19.5325 37.42383,-25.1133 14.11618,-5.5808 28.56124,-8.3711 43.33398,-8.3711 z m 463.09378,6.4004 h 45.7949 v 256.0606 h -45.7949 z m -463.58792,32.5 c -10.50504,0 -19.85932,2.1347 -28.0664,6.4024 -7.87881,3.9394 -14.60866,9.1921 -20.18946,15.7578 -5.58082,6.5656 -10.01405,14.115 -13.29687,22.6504 -2.95456,8.5353 -4.92336,17.2359 -5.90821,26.0996 h 127.04493 c 0.32826,-20.6819 -4.92448,-37.5894 -15.75782,-50.7207 -10.50507,-13.4597 -25.11403,-20.1895 -43.82617,-20.1895 z m 277.52932,1.9707 c -12.4748,0 -23.9657,2.1327 -34.4707,6.4004 -10.50512,4.2677 -18.54813,8.7009 -24.12893,13.2969 v 162.0078 c 4.59595,1.3131 10.99806,2.6244 19.20503,3.9375 8.5354,0.9848 19.0409,1.4785 31.5157,1.4785 24.6212,0 44.3171,-8.043 59.0898,-24.1289 14.7728,-16.4142 22.1602,-39.5579 22.1602,-69.4316 0,-13.1314 -1.3132,-25.4418 -3.9395,-36.9317 -2.6262,-11.4899 -6.8936,-21.3398 -12.8027,-29.5469 -5.9091,-8.5352 -13.6243,-15.0993 -23.1445,-19.6953 -9.192,-4.9242 -20.3531,-7.3867 -33.4844,-7.3867 z m -320.32619,349.7285 c 1.52393,-0.011 3.05509,0.051 4.59179,0.1973 19.53615,1.8573 36.29927,15.0472 53.74024,24.043 34.27086,18.52107 65.25396,27.8621 83.4375,66.46677 5.89693,19.26912 -5.96234,28.4189 21.93945,30.8164 10.50811,5.35639 20.39451,13.62267 26,24 5.78192,10.70378 3.80678,24.03379 6,36 0.61285,3.34364 1.80195,6.60644 2,10 1.44064,24.70564 -5.94898,49.25245 -6,74 -0.018,8.69223 2.68931,17.33513 2,26 -1.35923,17.086 -8.11264,33.3067 -12,50 -3.03016,13.01223 -6.85008,25.88424 -8.82617,39.09766 -2.79678,18.70118 -6.23521,37.76453 -4.24219,56.56836 1.76088,16.61355 8.67712,32.29663 14.14258,48.08398 4.98289,14.39343 10.54876,28.61422 16.9707,42.42578 6.75765,14.5335 14.11081,28.84768 22.62696,42.42578 11.47271,18.29201 28.37299,33.09144 38.18359,52.32618 7.654,15.00646 9.46865,32.37684 15.55664,48.08398 6.1756,15.93307 16.2302,30.32254 21.2129,46.66797 7.525,24.68549 9.4696,50.76877 12.7285,76.36914 2.7024,21.22916 5.467,42.55145 5.6465,63.95117 0.2355,28.07036 -7.3166,55.95957 -6,84.000002 0.951,20.253539 7.4299,39.88766 10,60 4.7511,37.1795136 7.2632,74.618205 10,112 6.0941,83.238498 19.7883,166.696398 14.293,249.976558 -2.1489,32.56521 -6.8377,65.64104 -18.3848,96.16602 -9.4968,25.10491 -29.157,45.21556 -41.0117,69.29687 -8.96968,18.22062 -5.7727,45.23798 -22.62698,56.56836 -168.82503,113.49355 -479.28955,151.64217 -610.26953,-4.00781 -13.05494,-15.51382 9.4079,-39.73277 10,-60 0.54822,-18.7655 -2.95895,-37.47445 -6,-56 -2.98685,-18.19555 -10.8813,-35.59487 -12,-54 -1.6662,-27.41253 5.94443,-54.61392 8,-82 0.94938,-12.6486 2.08882,-25.31609 2,-38 -0.0701,-10.02194 -1.12787,-20.01581 -2,-30 -2.15898,-24.71626 -6.20642,-49.25452 -8,-74 -3.90644,-53.895639 -4.99982,-107.972221 -6,-161.999998 -0.34545,-18.663458 0,-37.333329 0,-56 0,-26.000009 -1.2054,-52.027962 0,-78.000002 1.33478,-28.75944 4.00954,-57.48747 8,-86 4.51264,-32.24338 7.75151,-65.09745 18,-96 10.98074,-33.11061 34.96348,-60.90793 46,-94 5.17788,-15.52543 4.42443,-32.57603 9.21094,-48.22656 6.2999,-20.5988 17.6023,-39.33899 25.45703,-59.39649 8.20974,-20.96396 23.54122,-41.14303 22.62695,-63.63867 -0.41983,-10.33016 -9.93495,-18.33101 -12.72851,-28.28515 -4.10774,-14.63687 -0.93067,-30.80466 -5.65625,-45.25391 -2.75074,-8.41085 -9.57012,-15.00452 -12.91016,-23.19922 -5.73796,-14.07787 -5.32082,-30.34351 -12,-44 -5.858,-11.97751 -20.01007,-19.27765 -24,-32 -5.58947,-17.82266 -0.23344,-37.45544 2,-56 2.36069,-19.60112 4.5786,-39.70519 12,-58 6.53495,-16.10952 20.32934,-28.39924 28,-44 9.09884,-18.50536 7.49026,-42.63817 21.05273,-58.17187 7.34998,-8.41826 19.65234,-10.65887 29.69727,-15.5566 19.53245,-9.5239 38.87316,-19.7268 59.39649,-26.8692 9.17829,-3.1942 18.56814,-6.9146 28.28515,-7.0703 17.84274,-0.2859 34.48189,11.4746 52.32617,11.3125 23.1536,-0.2102 44.67413,-16.9966 67.53321,-17.168 z m -139.07618,63.20707 c -11.80131,0.0189 -23.33131,9.75752 -34.52343,14.77148 -10.78088,4.82982 -23.67177,7.79579 -31.11328,16.9707 -9.3007,11.46728 -17.61595,28.49595 -12.72657,42.42774 7.96732,22.70264 35.67859,45.05494 59.39649,41.01172 31.60308,-5.38738 58.09786,-45.75879 56.56836,-77.78125 -0.7807,-16.34529 -16.67933,-32.69313 -32.52735,-36.76954 -1.69678,-0.43644 -3.38832,-0.63339 -5.07422,-0.63085 z M 747.25,-965.50781 c -4.0032,-0.0571 -7.98358,0.22792 -11.89648,1 -8.2732,1.63275 -16.91707,5.10892 -22.62696,11.31445 -6.87571,7.47239 -12.75286,18.2332 -11.31445,28.28516 0.2943,2.05664 0.71111,4.12071 1.24219,6.17773 0.17702,0.68567 0.36627,1.36895 0.56836,2.05274 3.63727,12.30885 11.28376,24.23298 21.11328,32.96875 0.8485,0.75409 1.71779,1.47885 2.59765,2.18359 0.25226,0.20204 0.50115,0.40963 0.75586,0.60742 4.57439,3.55236 9.53975,6.41165 14.73633,8.33399 6.7632,2.50189 14.22621,-2.45716 21.21289,-4.24219 1.91345,-0.48887 3.86967,-0.90786 5.83008,-1.32813 0.98052,-0.2102 1.96292,-0.42087 2.94141,-0.64062 4.89243,-1.09878 9.70248,-2.42854 13.85546,-5.10156 10.10612,-6.50468 16.34023,-17.64384 24.04102,-26.8711 1.9372,-2.32117 4.89355,-4.35815 7.07227,-6.65234 0.48416,-0.50982 0.92869,-1.03309 1.3164,-1.57422 0.38772,-0.54114 0.71884,-1.10123 0.97071,-1.68555 0.37779,-0.87648 0.57971,-1.80741 0.54101,-2.81445 -0.53779,-14.00553 -16.71807,-23.19846 -28.28515,-31.11328 -5.41883,-3.70783 -11.97787,-5.6339 -18.38477,-7.07031 -8.56188,-1.91857 -17.48024,-3.70456 -26.28711,-3.83008 z m -94.91797,65.48633 c -7.84762,0.12283 -15.86514,2.07583 -23.04492,4.81054 -11.63029,4.42987 -22.94718,12.17112 -29.69727,22.62696 -6.82231,10.56782 -10.24339,24.31421 -8.48632,36.76953 1.35601,9.61164 5.91639,20.30421 14.14257,25.45703 14.4042,9.02264 34.16722,5.74339 50.91211,2.82812 13.11111,-2.2826 27.88473,-5.64853 36.76953,-15.55664 6.57151,-7.32827 8.9722,-18.45208 8.48438,-28.2832 -0.42951,-8.65599 -4.88134,-16.9762 -9.89844,-24.04297 -6.57218,-9.25716 -14.69815,-19.00257 -25.45703,-22.62695 -4.36853,-1.47167 -9.01604,-2.0562 -13.72461,-1.98242 z m -71.73047,107.92773 c -1.07427,0.009 -2.14679,0.0449 -3.21875,0.10937 -2.1439,0.12883 -4.2844,0.37233 -6.41797,0.75196 -1.06678,0.18969 -2.13139,0.41397 -3.19531,0.67383 -7.2407,1.76847 -16.78897,5.44778 -18.38476,12.72851 -0.80599,3.67715 0.83807,7.87488 3.52734,11.10547 0.26923,0.32342 0.54912,0.63691 0.83789,0.93945 1.44211,1.51115 3.10938,2.74254 4.82812,3.50977 4.38989,1.95957 9.48962,-1.61168 14.14063,-2.82813 2.39713,-0.62695 4.75211,-1.41754 7.08789,-2.27539 1.16818,-0.42904 2.33207,-0.87573 3.49414,-1.32617 1.1615,-0.45022 2.32282,-0.90613 3.48438,-1.35351 1.16212,-0.4476 2.32775,-0.88807 3.49609,-1.3086 3.50501,-1.26157 7.05087,-2.34603 10.72266,-2.92773 15.59746,-2.47098 31.644,-1.38743 47.375,0 10.73128,0.94647 21.19322,3.89015 31.82031,5.65625 18.54215,3.08147 37.85137,13.29623 56.125,12.84375 0.70285,-0.0174 1.40578,-0.0496 2.10547,-0.0996 3.49845,-0.25006 6.95539,-0.92021 10.35937,-2.13672 4.8627,-1.73782 10.85006,-5.21027 14.72071,-9.49023 0.86014,-0.95111 1.61697,-1.94223 2.23242,-2.9629 1.53861,-2.55165 2.20076,-5.2889 1.43164,-8.05273 -1.01191,-3.63634 -3.60078,-5.92744 -7.04883,-7.39258 -0.68961,-0.29302 -1.41339,-0.55207 -2.16602,-0.7832 -7.52629,-2.31129 -17.91665,-1.73623 -25.43359,-2.43164 -18.67415,-1.72756 -37.21275,3.35484 -55.83984,6.63867 -3.38675,0.59706 -6.77601,1.13416 -10.16993,1.56055 -5.09086,0.63958 -10.19207,1.02962 -15.30664,0.99414 -2.95692,-0.0205 -5.91446,-0.22797 -8.87304,-0.57617 -2.95858,-0.34821 -5.91726,-0.83731 -8.875,-1.41797 -17.74647,-3.48398 -35.45647,-10.29505 -52.85938,-10.14844 z m 323.04297,404.58594 24.66016,665.80469 c -2.31288,-19.67321 -4.09846,-39.41831 -6.27539,-59.10743 -3.06074,-27.6826 -4.30306,-55.64146 -7.00196,-83.37304 -0.53978,-5.54632 -1.13778,-11.08334 -1.82031,-16.60743 -1.36505,-11.04816 -3.06789,-22.044231 -5.31836,-32.955074 C 905.50545,74.7 903.49718,62.550712 897.40039,52.451172 879.85919,23.393652 854.79932,0.27490463 828.77734,-22.126953 c -2.89128,-2.489062 -5.79317,-4.970746 -8.69922,-7.449219 -17.43626,-14.870837 -34.97663,-29.679255 -50.67773,-45.972656 -35.3517,-36.685302 -88.55961,-63.449552 -104,-112.000002 -0.57329,-1.80263 -0.99693,-3.61989 -1.29297,-5.44922 -0.19736,-1.21955 -0.3387,-2.444 -0.42773,-3.67383 -0.93482,-12.91313 3.77428,-26.35873 7.22851,-39.59765 0.65795,-2.5217 1.26978,-5.03541 1.78907,-7.53711 0.25964,-1.25085 0.49602,-2.49825 0.70312,-3.74219 3.34961,-20.11914 10.83541,-39.63719 12,-60 0.91673,-16.02928 -4,-48 -4,-48 l -161.00781,55.72266 c 0,0 -15.72953,42.86692 -30.8457,74.93555 -2.32558,4.93362 -4.636,9.61081 -6.87305,13.83789 -1.11852,2.11353 -2.2189,4.11489 -3.29297,5.97851 -10.26162,17.80476 -23.37333,32.05478 -30,44.06445 -0.77961,1.41291 -1.46981,2.79541 -2.05469,4.14844 -3.8017,8.7947 -3.16861,16.36908 6.07422,23.3125 69.82054,52.450721 122.93881,87.870944 168.31641,119.597658 6.48251,4.5323881 12.80732,8.9896481 19,13.41015638 27.86703,19.89228762 53.06327,39.04469662 77.9707,61.00195362 2.76749,2.439694 5.53131,4.913942 8.29492,7.427734 16.58202,15.083016 33.15278,31.58707 50.41797,50.562498 2.9249,3.21464 5.47953,6.75845 7.77539,10.47656 1.14793,1.85906 2.23085,3.76241 3.26367,5.68946 1.03283,1.92704 2.01511,3.87754 2.96094,5.83398 14.51514,30.02499 22.60527,62.82621 31.21875,95.35156 1.61503,6.09851 3.24967,12.18713 4.94727,18.2461 4.52692,16.15724 9.51014,32.10366 15.81836,47.45508 1.57705,3.83785 3.23595,7.63685 4.99218,11.39453 2.63435,5.63652 5.48578,11.17702 8.59961,16.59961 0.27053,0.47111 0.58303,0.91538 0.92578,1.33984 0.34276,0.42446 0.7162,0.82813 1.10743,1.2207 0.39153,0.39294 0.8005,0.77265 1.21679,1.14844 2.07965,1.8773 4.31912,3.63392 5.23438,6.19141 6.18378,17.27888 -13.73603,48.48921 -8.4336,61.21875 0.20009,0.48036 0.43626,0.93534 0.71094,1.36133 0.82405,1.27795 1.99519,2.30342 3.58984,3.02929 0.53156,0.24196 1.11008,0.4494 1.73829,0.62305 0.3141,0.0868 0.64116,0.16528 0.98047,0.23437 11.27155,2.29533 6.6705,-20.93563 12.10546,-32.26367 0.37483,-0.78124 0.7966,-1.50636 1.27539,-2.16211 0.2394,-0.32787 0.49315,-0.63779 0.76172,-0.92968 2.00739,-2.18166 5.1052,-4.97964 7.92383,-4.4043 0,0 0.002,0 0.002,0 0.1873,0.0383 0.37418,0.0928 0.5586,0.16211 0,0 0.002,0 0.002,0 0.32719,0.12299 0.64533,0.25835 0.95508,0.4043 0,0 0.002,0 0.002,0 0.30974,0.14597 0.60953,0.30474 0.90235,0.47265 0,0 0.002,0 0.002,0 0.2928,0.16796 0.57712,0.34629 0.85351,0.53516 0,0 0.002,0 0.002,0 0.2764,0.18891 0.54417,0.38886 0.80469,0.59765 0,0 0.002,0 0.002,0 0.26052,0.20884 0.51266,0.42856 0.75781,0.65625 0,0 0.002,0 0.002,0 0.24516,0.22775 0.48259,0.46537 0.7129,0.71094 1.84493,1.9673 3.22175,4.49164 4.26367,7.30664 2.3443,6.33376 2.993,14.14462 3.46679,20.42969 1.20329,15.96166 -16.89671,31.66668 -11.3125,46.66797 0.35368,0.9501 0.90141,1.92053 1.58594,2.82812 0.34226,0.4538 0.7195,0.89254 1.12305,1.30469 1.81596,1.85467 4.18018,3.18129 6.4414,3.04102 0.2506,-0.0156 0.50087,-0.0486 0.74805,-0.10157 7.20381,-1.54476 12.56818,-12.09121 15.88281,-21.02343 0.73659,-1.98494 1.37242,-3.89057 1.9043,-5.59961 1.3297,-4.27262 2.01172,-7.31836 2.01172,-7.31836 l -1.41406,52.32617 21.21289,1.41406 c 0,0 28.43667,-57.696 24.04297,-87.68164 -1.87377,-12.78819 -15.44282,-21.00113 -20.73047,-32.78906 -0.17057,-0.38026 -0.33171,-0.76439 -0.48438,-1.15234 -5.45042,-13.85099 -6.2201,-29.1283 -8.48437,-43.83985 -0.32748,-2.12764 -0.64287,-4.25599 -0.94727,-6.38672 -0.0368,-0.25774 -0.0709,-0.51566 -0.10742,-0.77343 -0.86862,-6.13296 -1.6522,-12.27827 -2.38477,-18.42969 0.15912,-1.38278 1.89711,-16.49706 2.73243,-24.61524 4.09496,-39.80171 8.16845,-79.61207 11.31445,-119.5 3.8253,-48.500622 6.40699,-97.092561 9.19141,-145.6640594 1.31021,-22.8559396 3.65035,-45.6966826 3.53515,-68.5898436 -0.0217,-4.309677 -0.0798,-8.620283 -0.17187,-12.929688 -0.092,-4.309404 -0.217,-8.617459 -0.375,-12.925779 -0.94801,-25.84995 -3.045,-51.67338 -5.81641,-77.38281 -3.4763,-32.2486 -8.0276,-64.45616 -14.84961,-96.16602 -7.9742,-37.06556 -30.40625,-109.60156 -30.40625,-109.60156 z"
       style="opacity:1;fill:url(#linearGradient6121);fill-opacity:1;stroke:none;stroke-width:7.5506072;stroke-miterlimit:4;stroke-dasharray:none;stroke-opacity:1" />
    <g
       style="stroke:#501616"
       transform="translate(-1111.25,-181.90104)"
       id="g4605">
      <path
         id="path33"
         style="fill:#808000;stroke:#501616;stroke-width:1.32291663;stroke-linecap:butt;stroke-linejoin:miter;stroke-miterlimit:4;stroke-dasharray:none;stroke-opacity:1"
         d="m -435.16823,-83.491581 c 7.20621,-1.760059 14.65861,2.754869 22.07647,2.80633 7.21723,0.05007 14.32846,-3.097006 21.51517,-2.432152 3.18217,0.294388 8.3106,-0.272444 9.16736,2.80633 0.65118,2.340037 -2.57703,4.608148 -4.86431,5.425571 -5.76407,2.059953 -12.10932,-1.802846 -18.14761,-2.80633 -2.81177,-0.467279 -5.57968,-1.24629 -8.41899,-1.49671 -4.16215,-0.367091 -8.40808,-0.65378 -12.53492,0 -2.59065,0.410414 -4.94596,1.768459 -7.48356,2.432153 -1.23056,0.321846 -2.58027,1.266828 -3.74176,0.748355 -1.45521,-0.649588 -2.77335,-2.55929 -2.43216,-4.115951 0.42223,-1.926359 2.94854,-2.899684 4.86431,-3.367596 z m 88.86711,106.64054 c 0,0 5.93498,19.191811 8.04482,28.998741 1.80499,8.3899 3.00907,16.911622 3.92885,25.444062 0.9777,9.06972 1.6379,18.192799 1.68381,27.314948 0.0305,6.05715 -0.5888,12.1003 -0.93546,18.1476 -0.7367,12.85121 -1.42005,25.7078 -2.43216,38.54026 -0.83238,10.55368 -1.90994,21.08712 -2.99341,31.61799 -0.23119,2.24702 -0.74835,6.73519 -0.74835,6.73519 M -405.10328,31.604937 c 0,0 1.30088,8.458923 1.05833,12.700003 -0.30812,5.38766 -2.28876,10.55181 -3.175,15.875 -0.87672,5.266012 -3.7346,10.787582 -2.11666,15.875002 4.08528,12.84564 18.16318,19.927009 27.51666,29.633328 11.07801,11.4959 25.61592,20.19907 33.86667,33.86667 1.61312,2.67217 2.14415,5.88646 2.77469,8.94343 2.38176,11.54731 2.44607,23.4537 3.74179,35.17267 0.84161,7.61181 1.4542,15.25574 2.61921,22.8248 0.59911,3.89243 0.80299,7.93478 2.24507,11.59952 1.29258,3.28481 5.10089,5.48756 5.61266,8.98025 1.1625,7.9337 -6.36101,23.19898 -6.36101,23.19898 l -5.61266,-0.37417 0.37418,-13.84456 c 0,0 -1.85003,8.25364 -5.23849,8.98025 -1.04908,0.22496 -2.24494,-0.86535 -2.61924,-1.87087 -1.47749,-3.96909 3.31178,-8.12467 2.99342,-12.34786 -0.22286,-2.95631 -0.59232,-7.18915 -3.36759,-8.23191 -0.78323,-0.29428 -1.67854,0.50684 -2.24507,1.12255 -2.27396,2.47135 -0.45097,10.02455 -3.74177,9.35442 -5.74552,-1.17 2.34987,-12.06577 0.37418,-17.58632 -0.38747,-1.08267 -1.67245,-1.62204 -2.24507,-2.61924 -8.78791,-15.30375 -9.6692,-34.13039 -17.35013,-50.01861 -1.00099,-2.07057 -2.15641,-4.11975 -3.70417,-5.82083 -24.36256,-26.77586 -43.50019,-34.9548 -85.725,-66.674998 -6.0197,-4.52213 1.76328,-10.05713 6.87396,-18.9246 4.54694,-7.88933 10.85114,-25.069892 10.85114,-25.069892 m 26.94077,-169.50233 c -0.20656,-4.32469 -4.41294,-8.65006 -8.60607,-9.72861 -3.59146,-0.92379 -7.0927,2.22564 -10.47697,3.74177 -2.85245,1.27789 -6.263,2.06259 -8.2319,4.49013 -2.46081,3.03404 -4.66122,7.5392 -3.36759,11.22532 2.10804,6.00674 9.44006,11.92091 15.71543,10.85114 8.36165,-1.42541 15.37177,-12.10714 14.9671,-20.57975 z m 20.95392,4.11595 c -0.38058,-2.65958 1.17424,-5.50647 2.99342,-7.48354 1.51075,-1.64188 3.79791,-2.56142 5.98686,-2.99342 3.31291,-0.65383 6.80775,0.01 10.10277,0.74835 1.69515,0.38006 3.43059,0.88986 4.86431,1.87089 3.06048,2.09413 7.34124,4.52627 7.48355,8.2319 0.0546,1.42104 -1.70804,2.27578 -2.61924,3.36759 -2.03751,2.44138 -3.68712,5.38834 -6.36103,7.10937 -1.7581,1.13158 -3.96112,1.35334 -5.98684,1.87089 -1.84856,0.47229 -3.82323,1.78449 -5.61266,1.12253 -5.49923,-2.03429 -10.02055,-8.04025 -10.85114,-13.84456 z m -11.97367,31.056721 c 3.46898,-0.603944 7.37784,-1.494432 9.72863,-4.115951 1.73871,-1.938947 2.3741,-4.882398 2.24504,-7.483546 -0.11364,-2.290234 -1.29179,-4.491264 -2.61924,-6.361014 -1.7389,-2.44929 -3.88857,-5.02789 -6.73518,-5.98684 -3.08226,-1.03834 -6.68919,-0.40934 -9.72863,0.74836 -3.07719,1.17207 -6.07175,3.22039 -7.8577,5.98683 -1.80507,2.79607 -2.70998,6.433146 -2.24507,9.728614 0.35876,2.543079 1.56525,5.371842 3.74177,6.735193 3.81111,2.387241 9.03997,1.519681 13.47038,0.748354 z m -50.47112,-31.755021 c -2.02953,4.1277 -5.67929,7.37936 -7.40833,11.64167 -1.96358,4.8405 -2.5504,10.159695 -3.175,15.345832 -0.59093,4.906581 -2.00805,10.10109 -0.52917,14.816665 1.05567,3.366122 4.80007,5.29761 6.35,8.466667 1.7672,3.61328 1.65683,7.916894 3.175,11.641666 0.88372,2.168179 2.68776,3.912353 3.41556,6.137723 1.25031,3.823023 0.40988,8.101005 1.49672,11.973674 0.73913,2.633699 3.25651,4.750353 3.36759,7.483546 0.2419,5.951966 -3.81467,11.291255 -5.98683,16.83798 -2.07823,5.306879 -5.06833,10.2653459 -6.73518,15.7154479 -1.26643,4.1408668 -1.06704,8.6521908 -2.43702,12.7599631 -2.92008,8.755609 -9.26552,16.110321 -12.17084,24.870836 -2.71158,8.1763 -3.56853,16.86894 -4.7625,25.400002 -1.05581,7.54394 -1.7635,15.14489 -2.11666,22.75416 -0.31893,6.871769 0,13.758329 0,20.637498 0,4.93889 -0.0914,9.87863 0,14.81667 0.26463,14.29485 0.55392,28.60261 1.5875,42.8625 0.47455,6.54724 1.54543,13.03965 2.11666,19.57916 0.23075,2.64165 0.51063,5.28586 0.52917,7.9375 0.0235,3.35595 -0.27798,6.70756 -0.52917,10.05417 -0.54387,7.2459 -2.55751,14.44294 -2.11666,21.69584 0.29599,4.86969 2.38473,9.47326 3.175,14.2875 0.80461,4.90155 1.73255,9.85162 1.5875,14.81666 -0.15666,5.36237 -6.09996,11.7703 -2.64584,15.875 34.65512,41.18239 116.79866,31.08871 161.46695,1.06021 4.45936,-2.99783 3.61363,-10.14621 5.98684,-14.96708 3.13656,-6.37152 8.33845,-11.69236 10.85114,-18.3347 3.05517,-8.0764 4.29575,-16.82784 4.8643,-25.44405 1.45397,-22.03455 -2.16932,-44.11586 -3.78173,-66.13938 -0.72412,-9.8906 -1.38877,-19.79625 -2.64583,-29.63333 -0.68001,-5.32139 -2.39422,-10.51625 -2.64584,-15.874999 -0.34836,-7.41903 1.64981,-14.798049 1.5875,-22.224999 -0.0475,-5.66201 -0.77934,-11.30388 -1.49436,-16.920762 -0.86225,-6.77343 -1.37659,-13.6742 -3.36759,-20.20557 -1.31833,-4.324727 -3.97871,-8.132228 -5.61266,-12.347853 -1.61078,-4.15585 -2.09085,-8.751564 -4.11597,-12.722029 -2.59572,-5.0891853 -7.06728,-9.0047973 -10.10277,-13.8445611 -2.25323,-3.592532 -4.19887,-7.379994 -5.98683,-11.2253209 -1.69914,-3.654305 -3.17175,-7.417056 -4.49014,-11.225318 -1.44607,-4.177064 -3.27586,-8.326359 -3.74176,-12.722029 -0.52732,-4.975176 0.38254,-10.019077 1.12252,-14.967095 0.52284,-3.496058 1.53367,-6.901644 2.3354,-10.344464 1.02853,-4.416767 2.81537,-8.708505 3.175,-13.229166 0.18238,-2.292587 -0.53392,-4.579342 -0.52917,-6.879167 0.0135,-6.547792 1.96867,-13.042463 1.5875,-19.579165 -0.0524,-0.897886 -0.36702,-1.761162 -0.52917,-2.645832 -0.58029,-3.16606 -0.0577,-6.69296 -1.5875,-9.525 -1.48312,-2.74567 -4.09889,-4.93279 -6.87916,-6.35 -7.38235,-0.63434 -4.24457,-3.05527 -5.8048,-8.15356 -4.81106,-10.21415 -13.00896,-12.68595 -22.07646,-17.58634 -4.61459,-2.38012 -9.0498,-5.86959 -14.21874,-6.36101 -6.50539,-0.61848 -12.54859,4.43082 -19.08305,4.49013 -4.7213,0.0429 -9.12367,-3.06906 -13.84456,-2.99342 -2.57096,0.0412 -5.05512,1.02575 -7.48355,1.87089 -5.43013,1.88976 -10.54747,4.5895 -15.71543,7.10936 -2.65772,1.29589 -5.91305,1.88863 -7.85773,4.11596 -3.58841,4.10996 -3.16245,10.49511 -5.56985,15.39132 z" />
      <path
         style="opacity:1;fill:#ffff00;stroke:#501616;stroke-width:5;stroke-linecap:butt;stroke-linejoin:miter;stroke-miterlimit:4;stroke-dasharray:none;stroke-opacity:1"
         d="m -1627.8848,-502.86523 c -11.8013,0.0177 -23.3313,9.75751 -34.5234,14.77148 -10.7809,4.82982 -23.6718,7.79575 -31.1133,16.9707 -9.3007,11.46724 -17.6159,28.49595 -12.7265,42.42774 7.9673,22.70264 35.6785,45.05494 59.3964,41.01172 31.6031,-5.38738 58.0979,-45.75879 56.5684,-77.78125 -0.7807,-16.34529 -16.6793,-32.69313 -32.5273,-36.76954 -1.6968,-0.43643 -3.3884,-0.63338 -5.0743,-0.63085 z m 162.6348,12.35742 c -4.0032,-0.0571 -7.9836,0.22776 -11.8965,1 -8.2732,1.63275 -16.917,5.10892 -22.6269,11.31445 -6.8757,7.47239 -12.7529,18.2332 -11.3145,28.28516 3.1392,21.93755 20.2292,44.63556 41.0137,52.32422 6.7632,2.50189 14.2262,-2.45716 21.2129,-4.24219 7.6562,-1.9561 15.9821,-2.79348 22.6269,-7.07031 10.1061,-6.50468 16.3402,-17.64384 24.041,-26.8711 3.4439,-4.12652 10.1068,-7.3557 9.9004,-12.72656 -0.5378,-14.00553 -16.718,-23.19846 -28.2851,-31.11328 -5.4188,-3.70783 -11.9779,-5.63387 -18.3848,-7.07031 -8.5619,-1.91855 -17.4802,-3.70456 -26.2871,-3.83008 z m -94.918,65.48633 c -7.8476,0.12293 -15.8651,2.07582 -23.0449,4.81054 -11.6303,4.42987 -22.9472,12.17112 -29.6973,22.62696 -6.8223,10.56782 -10.2434,24.31421 -8.4863,36.76953 1.356,9.61163 5.9164,20.30421 14.1426,25.45703 14.4042,9.02264 34.1672,5.74337 50.9121,2.82812 13.1111,-2.28262 27.8847,-5.64853 36.7695,-15.55664 6.5715,-7.3283 8.9722,-18.45209 8.4844,-28.2832 -0.4295,-8.656 -4.8813,-16.9762 -9.8984,-24.04297 -6.5722,-9.25716 -14.6982,-19.00257 -25.4571,-22.62695 -4.3685,-1.47167 -9.016,-2.05619 -13.7246,-1.98242 z m -71.7304,107.92773 c -4.2971,0.0362 -8.5764,0.49575 -12.8321,1.53516 -7.2407,1.76848 -16.7889,5.44778 -18.3847,12.72851 -1.2896,5.88345 3.6933,13.09955 9.1933,15.55469 4.3899,1.95958 9.4897,-1.6117 14.1407,-2.82813 9.5909,-2.50845 18.4937,-7.64023 28.2851,-9.1914 15.5975,-2.47098 31.644,-1.38743 47.375,0 10.7313,0.94647 21.1932,3.89015 31.8203,5.65625 22.8219,3.79269 46.8044,18.39307 68.5899,10.60742 8.6448,-3.08947 20.8459,-11.66163 18.3847,-20.50586 -3.2381,-11.63631 -22.6213,-9.49477 -34.6484,-10.60742 -27.1624,-2.51284 -54.0387,9.3826 -81.3164,9.19336 -23.6554,-0.16411 -47.4035,-12.33805 -70.6074,-12.14258 z m 323.0429,404.585938 24.6602,665.804692 c -2.3129,-19.67321 -4.0985,-39.41832 -6.2754,-59.10743 -4.8972,-44.29217 -5.1387,-89.29217 -14.1406,-132.93554 -2.3832,-11.55391 -4.3915,-23.7032 -10.4883,-33.80274 -31.1839,-51.65707 -86.1304,-84.55093 -128,-128 -35.3517,-36.6853 -88.5596,-63.44955 -104,-112 -6.1151,-19.22804 4.6864,-40.09696 8,-60 3.3496,-20.11914 10.8354,-39.63719 12,-60 0.9167,-16.02928 -4,-48 -4,-48 l -161.0078,55.72266 c 0,0 -23.8265,64.93401 -41.0117,94.75195 -19.316,33.51485 -48.7321,54.43388 -25.9805,71.52539 159.5898,119.88736 231.921,150.7999 324,252 5.8498,6.42928 10.2167,14.17423 14,22 29.0303,60.04997 32.362,131.20593 65.5762,189.04688 2.1642,3.76894 7.0199,5.80841 8.4843,9.90039 7.4672,20.86507 -23.1294,62.04475 -1.414,66.46679 12.4376,2.53278 5.5481,-26.01493 14.1426,-35.35546 2.1412,-2.3271 5.5241,-5.35443 8.4843,-4.24219 10.4892,3.94114 11.8862,19.93982 12.7285,31.11328 1.2033,15.96166 -16.8967,31.66668 -11.3125,46.66797 1.4147,3.80039 5.9335,7.92251 9.8985,7.07226 12.8068,-2.74624 19.7988,-33.9414 19.7988,-33.9414 l -1.4141,52.32617 21.2129,1.41406 c 0,0 28.4367,-57.696 24.043,-87.68164 -1.9342,-13.20072 -16.3295,-21.52638 -21.2148,-33.9414 -5.4504,-13.85099 -6.2201,-29.1283 -8.4844,-43.83985 -1.3095,-8.508 -2.4216,-17.04242 -3.4395,-25.58984 0.1592,-1.38278 1.8972,-16.49706 2.7325,-24.61524 4.095,-39.80171 8.1684,-79.61207 11.3144,-119.5 3.8253,-48.50063 6.407,-97.09256 9.1914,-145.66406 1.3102,-22.85594 3.6504,-45.69668 3.5352,-68.58984 -0.1735,-34.47742 -2.6681,-68.95903 -6.3633,-103.23828 -3.4763,-32.2486 -8.0276,-64.45616 -14.8496,-96.16602 -7.9742,-37.06556 -30.4063,-109.601562 -30.4063,-109.601562 z"
         id="path4589"
         transform="scale(0.26458333)" />
      <path
         id="path4598"
         style="fill:none;stroke:#501616;stroke-width:1.21603251;stroke-linecap:butt;stroke-linejoin:miter;stroke-miterlimit:4;stroke-dasharray:none;stroke-opacity:1"
         d="m -415.66426,-115.96152 c 1.24241,-0.69668 2.30296,-2.06972 3.72723,-2.09005 1.50131,-0.0215 2.66008,1.39337 3.99011,2.09005 m 38.50039,0 a 19.346962,19.346962 0 0 1 -19.34695,19.346975 19.346962,19.346962 0 0 1 -19.34697,-19.346975 19.346962,19.346962 0 0 1 19.34697,-19.34696 19.346962,19.346962 0 0 1 19.34695,19.34696 z m -46.21773,0 a 19.346962,19.346962 0 0 1 -19.34696,19.346975 19.346962,19.346962 0 0 1 -19.34696,-19.346975 19.346962,19.346962 0 0 1 19.34696,-19.34696 19.346962,19.346962 0 0 1 19.34696,19.34696 z" />
    </g>
    <path
       id="path4626"
       d="m 169.72637,-241.6386 c 1.24241,-0.69668 2.30296,-2.06972 3.72723,-2.09005 1.50131,-0.0215 2.66008,1.39337 3.99011,2.09005"
       style="fill:none;stroke:#501616;stroke-width:1.21603251;stroke-linecap:butt;stroke-linejoin:miter;stroke-miterlimit:4;stroke-dasharray:none;stroke-opacity:1" />
    <path
       id="path4624"
       transform="scale(0.26458333)"
       d="m 568.36328,-986.40234 a 73.122376,73.122376 0 0 0 -73.12305,73.12304 73.122376,73.122376 0 0 0 73.12305,73.1211 73.122376,73.122376 0 0 0 73.12305,-73.1211 73.122376,73.122376 0 0 0 -73.12305,-73.12304 z m 174.68164,0 a 73.122376,73.122376 0 0 0 -73.12304,73.12304 73.122376,73.122376 0 0 0 73.12304,73.1211 73.122376,73.122376 0 0 0 73.1211,-73.1211 73.122376,73.122376 0 0 0 -73.1211,-73.12304 z"
       style="fill:#aa0000;stroke:#501616;stroke-width:4.59602833;stroke-linecap:butt;stroke-linejoin:miter;stroke-miterlimit:4;stroke-dasharray:none;stroke-opacity:1" />
  </g>
</svg>
